# This file uses centimeters as units for non-parametric coordinates.

mtllib blank.mtl
v -5.000000 -0.000000 5.000000
v 5.000000 -0.000000 5.000000
v -5.000000 0.000000 -5.000000
v 5.000000 0.000000 -5.000000
v -4.250000 -0.000000 4.250000
v 4.250000 -0.000000 4.250000
v -4.250000 0.000000 -4.250000
v 4.250000 0.000000 -4.250000
vt 0.000000 0.000000
vt 1.000000 0.000000
vt 1.000000 1.000000
vt 0.000000 1.000000
vt 0.000000 0.000000
vt 1.000000 0.000000
vt 1.000000 1.000000
vt 0.000000 1.000000
vt 0.000000 0.000000
vt 1.000000 0.000000
vt 1.000000 1.000000
vt 0.000000 1.000000
vt 0.000000 0.000000
vt 1.000000 0.000000
vt 1.000000 1.000000
vt 0.000000 1.000000
vn 0.000000 -1.000000 -0.000000
vn 0.000000 -1.000000 -0.000000
vn 0.000000 -1.000000 -0.000000
vn 0.000000 -1.000000 -0.000000
vn 0.000000 -1.000000 -0.000000
vn 0.000000 -1.000000 -0.000000
vn 0.000000 -1.000000 -0.000000
vn 0.000000 -1.000000 -0.000000
vn 0.000000 -1.000000 -0.000000
vn 0.000000 -1.000000 -0.000000
vn 0.000000 -1.000000 -0.000000
vn 0.000000 -1.000000 -0.000000
s 1
usemtl lambert2SG
f 2/1/1 1/2/2 6/4/3
f 6/4/3 1/2/2 5/3/4
f 1/5/2 3/6/5 5/8/4
f 5/8/4 3/6/5 7/7/6
f 4/9/7 2/10/1 8/12/8
f 8/12/8 2/10/1 6/11/3
f 3/13/5 4/14/7 7/16/6
f 7/16/6 4/14/7 8/15/8
s 2
usemtl initialShadingGroup
f 6/4/9 5/8/10 8/12/11
f 8/12/11 5/8/10 7/16/12
