# This file uses centimeters as units for non-parametric coordinates.

mtllib bldg5.mtl
g default
v -5.000000 -0.000000 5.000000
v 5.000000 -0.000000 5.000000
v -5.000000 0.000000 -5.000000
v 5.000000 0.000000 -5.000000
v -4.250000 -0.000000 4.250000
v 4.250000 -0.000000 4.250000
v -4.250000 0.000000 -4.250000
v 4.250000 0.000000 -4.250000
v -3.825000 -0.000000 3.825000
v 3.825000 -0.000000 3.825000
v -3.825000 0.000000 -3.825000
v 3.825000 0.000000 -3.825000
v -0.530861 0.000000 -5.000000
v -0.451231 0.000000 -4.250000
v -0.406108 0.000000 -3.825000
v -0.406108 -0.000000 3.825000
v -0.451231 -0.000000 4.250000
v -0.530861 -0.000000 5.000000
v -3.825000 7.229410 3.825000
v -0.406108 7.229410 3.825000
v -3.825000 7.229410 -3.825000
v -0.406108 7.229410 -3.825000
v -3.084240 8.559927 2.167500
v -1.146868 8.559927 2.167500
v -3.084240 8.559927 -2.167500
v -1.146868 8.559927 -2.167500
vt 0.000000 0.000000
vt 1.000000 0.000000
vt 1.000000 1.000000
vt 0.000000 1.000000
vt 0.000000 0.000000
vt 1.000000 0.000000
vt 1.000000 1.000000
vt 0.000000 1.000000
vt 0.000000 0.000000
vt 1.000000 0.000000
vt 1.000000 1.000000
vt 0.000000 1.000000
vt 0.000000 0.000000
vt 1.000000 0.000000
vt 1.000000 1.000000
vt 0.000000 1.000000
vt 0.000000 0.000000
vt 1.000000 0.000000
vt 1.000000 1.000000
vt 0.000000 1.000000
vt 0.000000 0.000000
vt 1.000000 0.000000
vt 1.000000 1.000000
vt 0.000000 1.000000
vt 0.000000 0.000000
vt 1.000000 0.000000
vt 1.000000 1.000000
vt 0.000000 1.000000
vt 0.000000 0.000000
vt 1.000000 0.000000
vt 1.000000 1.000000
vt 0.000000 1.000000
vt 0.446914 0.000000
vt 0.446914 0.000000
vt 0.446914 1.000000
vt 0.000000 1.000000
vt 0.446914 1.000000
vt 0.553086 1.000000
vt 0.000000 1.000000
vt 0.553086 1.000000
vt 0.553086 0.000000
vt 0.553086 0.000000
vt 0.000000 1.000000
vt 0.000000 1.000000
vt 0.000000 1.000000
vt 0.000000 1.000000
vt 0.000000 1.000000
vt 0.000000 1.000000
vt 0.000000 1.000000
vt 0.000000 1.000000
vn 0.000000 -1.000000 -0.000000
vn 0.000000 -1.000000 -0.000000
vn 0.000000 -1.000000 -0.000000
vn 0.000000 -1.000000 -0.000000
vn 0.000000 -1.000000 -0.000000
vn 0.000000 -1.000000 -0.000000
vn 0.000000 -1.000000 -0.000000
vn 0.000000 -1.000000 -0.000000
vn 0.000000 -1.000000 -0.000000
vn 0.000000 -1.000000 -0.000000
vn 0.000000 -1.000000 -0.000000
vn 0.000000 -1.000000 -0.000000
vn 0.000000 -1.000000 -0.000000
vn 0.000000 -1.000000 -0.000000
vn 0.000000 -1.000000 -0.000000
vn 0.000000 -1.000000 -0.000000
vn 0.000000 -1.000000 -0.000000
vn 0.000000 -1.000000 -0.000000
vn 0.000000 -1.000000 0.000000
vn 0.000000 -1.000000 0.000000
vn 0.000000 -1.000000 0.000000
vn 0.000000 -1.000000 0.000000
vn 0.000000 -1.000000 -0.000000
vn 0.000000 -1.000000 -0.000000
vn 0.000000 -1.000000 -0.000000
vn 0.000000 -1.000000 -0.000000
vn 0.000000 0.000000 -1.000000
vn 0.000000 0.000000 -1.000000
vn 0.000000 0.000000 -1.000000
vn 0.000000 0.000000 -1.000000
vn 1.000000 0.000000 0.000000
vn 1.000000 0.000000 0.000000
vn 0.985974 -0.166897 0.000000
vn 0.942646 -0.333794 0.000000
vn 0.000000 0.000000 1.000000
vn 0.000000 0.000000 1.000000
vn 0.000000 0.000000 1.000000
vn 0.000000 0.000000 1.000000
vn -1.000000 0.000000 0.000000
vn -1.000000 0.000000 0.000000
vn -0.985974 -0.166897 0.000000
vn -0.942646 -0.333794 0.000000
vn 0.000000 -0.779831 -0.625990
vn 0.000000 -0.779831 -0.625990
vn 0.000000 -0.779831 -0.625990
vn 0.000000 -0.779831 -0.625990
vn 0.873715 -0.486438 0.000000
vn 0.873715 -0.486438 0.000000
vn 0.000000 -0.779831 0.625990
vn 0.000000 -0.779831 0.625990
vn 0.000000 -0.779831 0.625990
vn 0.000000 -0.779831 0.625991
vn -0.873715 -0.486437 0.000000
vn -0.873715 -0.486437 0.000000
s 1
g pPlane1
usemtl lambert3SG
f 17/40/1 18/42/2 5/3/3
f 5/3/3 18/42/2 1/2/4
f 5/8/3 1/5/4 7/7/5
f 7/7/5 1/5/4 3/6/6
f 8/12/7 4/9/8 6/11/9
f 6/11/9 4/9/8 2/10/10
f 3/13/6 13/33/11 7/16/5
f 7/16/5 13/33/11 14/35/12
usemtl initialShadingGroup
f 16/38/13 17/41/1 9/19/14
f 9/19/14 17/41/1 5/18/3
f 9/24/14 5/21/3 11/23/15
f 11/23/15 5/21/3 7/22/5
f 12/28/16 8/25/7 10/27/17
f 10/27/17 8/25/7 6/26/9
f 7/29/5 14/34/12 11/32/15
f 11/32/15 14/34/12 15/37/18
s 5
usemtl lambert4SG
f 24/47/19 23/48/20 26/50/21
f 26/50/21 23/48/20 25/49/22
s 1
usemtl lambert3SG
f 14/35/12 13/33/11 8/15/7
f 8/15/7 13/33/11 4/14/8
usemtl initialShadingGroup
f 15/37/18 14/34/12 12/31/16
f 12/31/16 14/34/12 8/30/7
s 6
usemtl phong2SG
f 10/20/23 16/39/24 12/28/25
f 12/28/25 16/39/24 15/36/26
s 1
usemtl initialShadingGroup
f 6/17/9 17/41/1 10/20/17
f 10/20/17 17/41/1 16/38/13
usemtl lambert3SG
f 2/1/10 18/42/2 6/4/9
f 6/4/9 18/42/2 17/40/1
s 7
usemtl lambert5SG
f 16/39/27 9/24/28 20/43/29
f 20/43/29 9/24/28 19/44/30
s 8
f 9/24/31 11/32/32 19/44/33
f 19/44/33 11/32/32 21/45/34
s 9
f 11/32/35 15/36/36 21/45/37
f 21/45/37 15/36/36 22/46/38
s 10
f 15/36/39 16/39/40 22/46/41
f 22/46/41 16/39/40 20/43/42
s 11
usemtl lambert4SG
f 20/43/43 19/44/44 24/47/45
f 24/47/45 19/44/44 23/48/46
s 8
f 19/44/33 21/45/34 23/48/47
f 23/48/47 21/45/34 25/49/48
s 12
f 21/45/49 22/46/50 25/49/51
f 25/49/51 22/46/50 26/50/52
s 10
f 22/46/41 20/43/42 26/50/53
f 26/50/53 20/43/42 24/47/54
